PathFileType        4      (X/Y/Z)      C:\Users\pc\Desktop\IMUTRC\Sujet_06\Sujet_06_Tpose.trc         
DataRate	CameraRate	NumFrames	NumMarkers	Units	OrigDataRate	OrigDataStartFrame	OrigNumFrames
60.0	60.0	4	64	mm	60.0	64	127
Frame#	Time	pHipOrigin			pRightASI			pLeftASI			pRightCSI			pLeftCSI			pRightIschialTub			pLeftIschialTub			pSacrum			pL5SpinalProcess			pL3SpinalProcess			pT12SpinalProcess			pIJ			pT4SpinalProcess			pT8SpinalProcess			pPX			pC7SpinalProcess			pTopOfHead			pRightAuricularis			pLeftAuricularis			pBackOfHead			pRightAcromion			pLeftAcromion			pRightArmLatEpicondyle			pRightArmMedEpicondyle			pLeftArmLatEpicondyle			pLeftArmMedEpicondyle			pRightUlnarStyloid			pRightRadialStyloid			pRightOlecranon			pLeftUlnarStyloid			pLeftRadialStyloid			pLeftOlecranon			pRightTopOfHand			pRightPinky			pRightBallHand			pLeftTopOfHand			pLeftPinky			pLeftBallHand			pRightGreaterTrochanter			pRightKneeLatEpicondyle			pRightKneeMedEpicondyle			pRightPatella			pLeftGreaterTrochanter			pLeftKneeLatEpicondyle			pLeftKneeMedEpicondyle			pLeftPatella			pRightTibialTub			pRightLatMalleolus			pRightMedMalleolus			pLeftTibialTub			pLeftLatMalleolus			pLeftMedMalleolus			pRightHeelFoot			pRightFirstMetatarsal			pRightFifthMetatarsal			pRightPivotFoot			pRightHeelCenter			pRightToe			pLeftHeelFoot			pLeftFirstMetatarsal			pLeftFifthMetatarsal			pLeftPivotFoot			pLeftHeelCenter			pLeftToe			
		X1	Y1	Z1	X2	Y2	Z2	X3	Y3	Z3	X4	Y4	Z4	X5	Y5	Z5	X6	Y6	Z6	X7	Y7	Z7	X8	Y8	Z8	X9	Y9	Z9	X10	Y10	Z10	X11	Y11	Z11	X12	Y12	Z12	X13	Y13	Z13	X14	Y14	Z14	X15	Y15	Z15	X16	Y16	Z16	X17	Y17	Z17	X18	Y18	Z18	X19	Y19	Z19	X20	Y20	Z20	X21	Y21	Z21	X22	Y22	Z22	X23	Y23	Z23	X24	Y24	Z24	X25	Y25	Z25	X26	Y26	Z26	X27	Y27	Z27	X28	Y28	Z28	X29	Y29	Z29	X30	Y30	Z30	X31	Y31	Z31	X32	Y32	Z32	X33	Y33	Z33	X34	Y34	Z34	X35	Y35	Z35	X36	Y36	Z36	X37	Y37	Z37	X38	Y38	Z38	X39	Y39	Z39	X40	Y40	Z40	X41	Y41	Z41	X42	Y42	Z42	X43	Y43	Z43	X44	Y44	Z44	X45	Y45	Z45	X46	Y46	Z46	X47	Y47	Z47	X48	Y48	Z48	X49	Y49	Z49	X50	Y50	Z50	X51	Y51	Z51	X52	Y52	Z52	X53	Y53	Z53	X54	Y54	Z54	X55	Y55	Z55	X56	Y56	Z56	X57	Y57	Z57	X58	Y58	Z58	X59	Y59	Z59	X60	Y60	Z60	X61	Y61	Z61	X62	Y62	Z62	X63	Y63	Z63	X64	Y64	Z64	
64	1.05	1137.40107	894.6147600000002	-1010.67258	1207.62093	981.35694	-902.4169699999999	1179.85425	983.0206400000001	-1131.31994	1165.74144	1039.01295	-915.1529199999999	1142.33482	1040.44718	-1108.08542	1095.98053	843.7283100000001	-957.08978	1084.27722	844.4741100000001	-1053.58472	1079.22873	911.9402500000001	-1003.50144	1104.87275	994.2650000000001	-1005.2225099999999	1107.85595	1109.23281	-1004.8209299999999	1097.24265	1213.58732	-1002.5261599999999	1224.43009	1447.53877	-1024.90013	1078.3682	1408.64248	-999.0266399999999	1083.47405	1317.65498	-999.8298099999998	1236.47762	1323.62138	-1026.90806	1076.18817	1465.03637	-997.8218899999999	1113.87971	1735.93357	-987.5528099999999	1142.16271	1626.76005	-929.1509999999998	1105.61855	1638.57809	-1068.61544	1069.18913	1625.78477	-985.1432999999998	1135.56525	1455.45572	-826.4601899999999	1061.38692	1456.37363	-1177.33001	1185.07484	1404.16769	-555.8498399999999	1242.67349	1384.94902	-572.7163799999998	967.58834	1369.28723	-1433.77017	1023.63801	1342.09425	-1443.35083	1260.6874	1337.50472	-318.0546499999999	1238.60027	1383.62952	-308.5313699999999	1222.13532	1372.67201	-571.9705799999999	907.17861	1281.45504	-1668.35269	879.64141	1325.57193	-1666.2874	1008.54992	1335.43943	-1435.9502	1294.53521	1350.69962	-152.0282899999999	1304.28797	1332.62834	-231.0829999999999	1277.72605	1355.46126	-291.14850999999993	877.63349	1279.90607	-1832.65798	909.70285	1261.77742	-1759.79914	910.85023	1291.49465	-1696.92254	1151.74336	862.71751	-863.75015	1112.56022	485.28577000000007	-877.40401	1106.24961	482.81889000000007	-950.89391	1150.30913	482.7615200000001	-920.08667	1115.65815	862.2585500000001	-1155.98868	1088.46517	484.76945000000006	-1125.41091	1101.14376	483.96628000000004	-1052.72418	1135.96684	483.7368000000001	-1093.74313	1160.97979	450.46268000000003	-919.85719	1096.0379	85.93901000000005	-872.12605	1091.04678	83.93109000000005	-930.98681	1145.83433	450.3479500000001	-1095.98053	1067.35332	85.99638000000007	-1117.83818	1077.50766	85.07847000000007	-1059.60848	1060.52639	-0.05736999999994462	-904.36752	1212.4973	12.850690000000059	-957.49137	1220.75846	7.113780000000054	-881.76407	1238.02658	11.301730000000056	-922.89776	1097.58687	4.187950000000056	-908.09651	1313.63914	15.948630000000056	-930.8147	1041.88141	0.05737000000006611	-1079.74506	1202.85929	11.703310000000066	-1085.59671	1182.60797	11.18699000000007	-1159.20135	1213.8168	12.90806000000007	-1127.18936	1077.73714	4.5895300000000665	-1089.66992	1287.07722	18.18603000000007	-1147.3833	
65	1.067	1137.51581	894.6147600000002	-1010.78732	1207.67829	981.35694	-902.5317099999999	1179.91162	983.0206400000001	-1131.37731	1165.85617	1039.01295	-915.2102899999999	1142.44955	1040.44718	-1108.20016	1096.0379	843.7283100000001	-957.14715	1084.33459	844.4741100000001	-1053.64209	1079.2861	911.9402500000001	-1003.55881	1104.93012	994.2650000000001	-1005.3372499999999	1107.97069	1109.23281	-1004.8782999999999	1097.35739	1213.58732	-1002.5835299999999	1224.6022	1447.53877	-1025.01487	1078.5403	1408.64248	-999.1413799999999	1083.58879	1317.71235	-999.9445499999999	1236.59235	1323.62138	-1027.02279	1076.36028	1465.03637	-997.9366299999999	1114.10919	1735.93357	-987.6675499999999	1142.39219	1626.76005	-929.2657399999999	1105.84803	1638.52073	-1068.78755	1069.36124	1625.78477	-985.2580399999999	1135.73736	1455.45572	-826.5749299999999	1061.55903	1456.37363	-1177.44474	1185.24695	1404.16769	-555.9645799999998	1242.84559	1384.94902	-572.8311099999999	967.76045	1369.28723	-1433.88491	1023.81012	1342.09425	-1443.46556	1260.80214	1337.50472	-318.1120199999999	1238.71501	1383.62952	-308.64610999999996	1222.25006	1372.72938	-572.0279499999999	907.35072	1281.45504	-1668.41006	879.81352	1325.51456	-1666.40214	1008.72203	1335.43943	-1436.06494	1294.64995	1350.69962	-152.14302999999992	1304.34534	1332.57097	-231.19773999999992	1277.78341	1355.4039	-291.26324999999997	877.74823	1279.8487	-1832.71535	909.87496	1261.77742	-1759.85651	910.96497	1291.49465	-1697.03727	1151.80073	862.71751	-863.80752	1112.56022	485.28577000000007	-877.40401	1106.24961	482.81889000000007	-950.89391	1150.3665	482.7615200000001	-920.14404	1115.71552	862.2585500000001	-1156.04605	1088.52254	484.76945000000006	-1125.41091	1101.20112	483.96628000000004	-1052.72418	1135.96684	483.7368000000001	-1093.8005	1160.97979	450.46268000000003	-919.85719	1096.0379	85.93901000000005	-872.12605	1091.04678	83.93109000000005	-930.98681	1145.83433	450.3479500000001	-1095.98053	1067.35332	85.99638000000007	-1117.83818	1077.50766	85.13584000000007	-1059.60848	1060.52639	-0.05736999999994462	-904.36752	1212.4973	12.850690000000059	-957.49137	1220.75846	7.113780000000054	-881.76407	1238.02658	11.301730000000056	-922.89776	1097.58687	4.187950000000056	-908.09651	1313.63914	15.948630000000056	-930.8147	1041.88141	0.05737000000006611	-1079.74506	1202.85929	11.703310000000066	-1085.48197	1182.66534	11.18699000000007	-1159.14398	1213.87416	12.90806000000007	-1127.01725	1077.79451	4.646900000000066	-1089.61255	1287.13459	18.243390000000073	-1147.21119	
66	1.083	1137.57318	894.5573900000002	-1010.84469	1207.79303	981.29957	-902.5890699999999	1180.02636	983.0206400000001	-1131.43467	1165.97091	1039.01295	-915.3250299999999	1142.56429	1040.44718	-1108.25753	1096.09527	843.7283100000001	-957.26189	1084.39196	844.4741100000001	-1053.75682	1079.40084	911.9402500000001	-1003.67354	1105.04486	994.2650000000001	-1005.3946199999999	1108.08542	1109.23281	-1004.9930299999999	1097.47213	1213.58732	-1002.6982699999999	1224.77431	1447.53877	-1025.12961	1078.71241	1408.64248	-999.2561199999999	1083.7609	1317.71235	-1000.0592899999999	1236.76446	1323.62138	-1027.08016	1076.53238	1465.03637	-998.0513699999999	1114.33866	1735.93357	-987.8396499999999	1142.56429	1626.76005	-929.3804699999998	1106.0775	1638.52073	-1068.95965	1069.59071	1625.84214	-985.4301499999999	1135.90947	1455.51309	-826.6896699999999	1061.67377	1456.37363	-1177.55948	1185.41906	1404.22505	-556.0219499999998	1243.0177	1384.94902	-572.9458499999998	967.93255	1369.28723	-1433.99965	1023.98223	1342.09425	-1443.5803	1260.91688	1337.50472	-318.22675999999996	1238.82975	1383.62952	-308.70347999999996	1222.42217	1372.72938	-572.1426799999999	907.52282	1281.39767	-1668.5248	879.92825	1325.51456	-1666.45951	1008.89414	1335.43943	-1436.12231	1294.76469	1350.64225	-152.2577599999999	1304.46008	1332.57097	-231.2550999999999	1277.89815	1355.4039	-291.32061999999996	877.92033	1279.8487	-1832.83009	910.04707	1261.72005	-1759.97125	911.13708	1291.49465	-1697.09464	1151.8581	862.71751	-863.92226	1112.61759	485.28577000000007	-877.46138	1106.30698	482.81889000000007	-950.95128	1150.42387	482.7615200000001	-920.14404	1115.83026	862.2585500000001	-1156.16078	1088.52254	484.76945000000006	-1125.46828	1101.20112	484.02365000000003	-1052.78155	1136.02421	483.7368000000001	-1093.8005	1161.03716	450.46268000000003	-919.91456	1096.0379	85.93901000000005	-872.12605	1091.04678	83.87372000000006	-930.98681	1145.8917	450.3479500000001	-1096.0379	1067.35332	85.99638000000007	-1117.78081	1077.45029	85.13584000000007	-1059.60848	1060.52639	-0.05736999999994462	-904.36752	1212.4973	12.793320000000058	-957.49137	1220.75846	7.113780000000054	-881.76407	1238.02658	11.301730000000056	-922.89776	1097.58687	4.187950000000056	-908.09651	1313.63914	15.948630000000056	-930.8147	1041.88141	0.05737000000006611	-1079.74506	1202.85929	11.760680000000066	-1085.30987	1182.72271	11.244360000000071	-1158.97187	1213.93153	12.965430000000069	-1126.90251	1077.79451	4.646900000000066	-1089.61255	1287.19196	18.243390000000073	-1146.98172	
67	1.1	1137.68791	894.5573900000002	-1010.95943	1207.90777	981.29957	-902.7038099999999	1180.1411	983.0206400000001	-1131.54941	1166.08565	1039.01295	-915.3823999999998	1142.67903	1040.44718	-1108.37227	1096.21001	843.7283100000001	-957.31926	1084.5067	844.4741100000001	-1053.81419	1079.45821	911.9402500000001	-1003.73091	1105.1596	994.2650000000001	-1005.5093599999999	1108.20016	1109.23281	-1005.0503999999999	1097.64424	1213.58732	-1002.7556399999999	1224.94641	1447.48141	-1025.24435	1078.82715	1408.64248	-999.3708599999999	1083.87564	1317.71235	-1000.1166599999999	1236.8792	1323.62138	-1027.1949	1076.64712	1465.03637	-998.1087299999999	1114.56814	1735.99094	-988.0117599999999	1142.7364	1626.81742	-929.5525799999999	1106.24961	1638.52073	-1069.07439	1069.76282	1625.84214	-985.5448899999999	1136.08158	1455.51309	-826.8044099999998	1061.78851	1456.37363	-1177.61685	1185.5338	1404.22505	-556.1366899999999	1243.13244	1384.94902	-573.0032199999999	968.04729	1369.22986	-1434.11439	1024.15434	1342.09425	-1443.69504	1261.03162	1337.50472	-318.28412999999995	1239.00186	1383.68689	-308.81821999999994	1222.53691	1372.72938	-572.2574199999999	907.69493	1281.39767	-1668.63954	880.10036	1325.51456	-1666.57425	1009.06625	1335.43943	-1436.23705	1294.87943	1350.69962	-152.31512999999993	1304.63218	1332.57097	-231.36983999999993	1278.07026	1355.4039	-291.43535999999995	878.09244	1279.8487	-1832.94483	910.21917	1261.72005	-1760.08599	911.30919	1291.43728	-1697.20938	1151.97284	862.71751	-863.97963	1112.61759	485.28577000000007	-877.51875	1106.36435	482.81889000000007	-951.00865	1150.42387	482.70416000000006	-920.20141	1115.88763	862.2585500000001	-1156.21815	1088.52254	484.76945000000006	-1125.52565	1101.20112	484.02365000000003	-1052.83892	1136.02421	483.7368000000001	-1093.85787	1161.03716	450.46268000000003	-919.97193	1096.0379	85.93901000000005	-872.12605	1091.04678	83.87372000000006	-930.98681	1145.8917	450.3479500000001	-1096.09527	1067.29595	85.99638000000007	-1117.78081	1077.45029	85.13584000000007	-1059.55111	1060.52639	-0.05736999999994462	-904.36752	1212.4973	12.793320000000058	-957.49137	1220.75846	7.113780000000054	-881.76407	1238.02658	11.301730000000056	-922.89776	1097.58687	4.187950000000056	-908.09651	1313.63914	15.948630000000056	-930.8147	1041.88141	0.05737000000006611	-1079.74506	1202.85929	11.760680000000066	-1085.19513	1182.78008	11.244360000000071	-1158.85714	1213.93153	12.965430000000069	-1126.7304	1077.79451	4.646900000000066	-1089.55518	1287.24933	18.30076000000007	-1146.75224	
